<svg xmlns="http://www.w3.org/2000/svg" viewBox="0 0 512 512"><defs><style>.cls-1{fill:#211915;}</style></defs><title>50-Computer-hardware-Line-Icons</title><g id="_03" data-name="03"><path class="cls-1" d="M300,195.39a2.5,2.5,0,0,1-2.5-2.5v-8a9.55,9.55,0,0,0-9.55-9.54H224.07a9.55,9.55,0,0,0-9.55,9.54v8a2.5,2.5,0,0,1-5,0v-8a14.56,14.56,0,0,1,14.55-14.54h63.86a14.56,14.56,0,0,1,14.55,14.54v8A2.5,2.5,0,0,1,300,195.39Z"/><path class="cls-1" d="M251,175.39a2.5,2.5,0,0,1-2.5-2.5V104.5a2.5,2.5,0,0,1,5,0v68.39A2.5,2.5,0,0,1,251,175.39Z"/><path class="cls-1" d="M261,175.39a2.5,2.5,0,0,1-2.5-2.5V41.12a2.5,2.5,0,0,0-5,0V61.64a2.5,2.5,0,0,1-5,0V41.12a7.5,7.5,0,0,1,15,0V172.89A2.5,2.5,0,0,1,261,175.39Z"/><path class="cls-1" d="M447.92,381.61H404.85a2.5,2.5,0,0,1,0-5h43.07a11.61,11.61,0,0,0,11.6-11.6V207a11.61,11.61,0,0,0-11.6-11.6H132a2.5,2.5,0,1,1,0-5h315.9a16.61,16.61,0,0,1,16.6,16.6V365A16.61,16.61,0,0,1,447.92,381.61Z"/><path class="cls-1" d="M340,381.61H64.08A16.61,16.61,0,0,1,47.48,365V207a16.61,16.61,0,0,1,16.6-16.6,2.5,2.5,0,0,1,0,5A11.61,11.61,0,0,0,52.48,207V365a11.61,11.61,0,0,0,11.6,11.6H340a2.5,2.5,0,0,1,0,5Z"/><path class="cls-1" d="M360,235.39H70a2.5,2.5,0,0,1-2.5-2.5v-20a2.5,2.5,0,0,1,2.5-2.5H280a2.5,2.5,0,0,1,0,5H72.48v15h285v-15H321.93a2.5,2.5,0,1,1,0-5H360a2.5,2.5,0,0,1,2.5,2.5v20A2.5,2.5,0,0,1,360,235.39Z"/><path class="cls-1" d="M90,265.39H70a2.5,2.5,0,0,1-2.5-2.5v-20a2.5,2.5,0,0,1,2.5-2.5H90a2.5,2.5,0,0,1,2.5,2.5v20A2.5,2.5,0,0,1,90,265.39Zm-17.5-5h15v-15h-15Z"/><path class="cls-1" d="M120,265.39H100a2.5,2.5,0,0,1-2.5-2.5v-20a2.5,2.5,0,0,1,2.5-2.5h20a2.5,2.5,0,0,1,2.5,2.5v20A2.5,2.5,0,0,1,120,265.39Zm-17.5-5h15v-15h-15Z"/><path class="cls-1" d="M150,265.39H130a2.5,2.5,0,0,1-2.5-2.5v-20a2.5,2.5,0,0,1,2.5-2.5h20a2.5,2.5,0,0,1,2.5,2.5v20A2.5,2.5,0,0,1,150,265.39Zm-17.5-5h15v-15h-15Z"/><path class="cls-1" d="M180,265.39H160a2.5,2.5,0,0,1-2.5-2.5v-20a2.5,2.5,0,0,1,2.5-2.5h20a2.5,2.5,0,0,1,2.5,2.5v20A2.5,2.5,0,0,1,180,265.39Zm-17.5-5h15v-15h-15Z"/><path class="cls-1" d="M210,265.39H190a2.5,2.5,0,0,1-2.5-2.5v-20a2.5,2.5,0,0,1,2.5-2.5h20a2.5,2.5,0,0,1,2.5,2.5v20A2.5,2.5,0,0,1,210,265.39Zm-17.5-5h15v-15h-15Z"/><path class="cls-1" d="M240,265.39H220a2.5,2.5,0,0,1-2.5-2.5v-20a2.5,2.5,0,0,1,2.5-2.5h20a2.5,2.5,0,0,1,2.5,2.5v20A2.5,2.5,0,0,1,240,265.39Zm-17.5-5h15v-15h-15Z"/><path class="cls-1" d="M270,265.39H250a2.5,2.5,0,0,1-2.5-2.5v-20a2.5,2.5,0,0,1,2.5-2.5h20a2.5,2.5,0,0,1,2.5,2.5v20A2.5,2.5,0,0,1,270,265.39Zm-17.5-5h15v-15h-15Z"/><path class="cls-1" d="M300,265.39H280a2.5,2.5,0,0,1-2.5-2.5v-20a2.5,2.5,0,0,1,2.5-2.5h20a2.5,2.5,0,0,1,2.5,2.5v20A2.5,2.5,0,0,1,300,265.39Zm-17.5-5h15v-15h-15Z"/><path class="cls-1" d="M90,295.39H70a2.5,2.5,0,0,1-2.5-2.5v-20a2.5,2.5,0,0,1,2.5-2.5H90a2.5,2.5,0,0,1,2.5,2.5v20A2.5,2.5,0,0,1,90,295.39Zm-17.5-5h15v-15h-15Z"/><path class="cls-1" d="M120,295.39H100a2.5,2.5,0,0,1-2.5-2.5v-20a2.5,2.5,0,0,1,2.5-2.5h20a2.5,2.5,0,0,1,2.5,2.5v20A2.5,2.5,0,0,1,120,295.39Zm-17.5-5h15v-15h-15Z"/><path class="cls-1" d="M150,295.39H130a2.5,2.5,0,0,1-2.5-2.5v-20a2.5,2.5,0,0,1,2.5-2.5h20a2.5,2.5,0,0,1,2.5,2.5v20A2.5,2.5,0,0,1,150,295.39Zm-17.5-5h15v-15h-15Z"/><path class="cls-1" d="M180,295.39H160a2.5,2.5,0,0,1-2.5-2.5v-20a2.5,2.5,0,0,1,2.5-2.5h20a2.5,2.5,0,0,1,2.5,2.5v20A2.5,2.5,0,0,1,180,295.39Zm-17.5-5h15v-15h-15Z"/><path class="cls-1" d="M210,295.39H190a2.5,2.5,0,0,1-2.5-2.5v-20a2.5,2.5,0,0,1,2.5-2.5h20a2.5,2.5,0,0,1,2.5,2.5v20A2.5,2.5,0,0,1,210,295.39Zm-17.5-5h15v-15h-15Z"/><path class="cls-1" d="M240,295.39H220a2.5,2.5,0,0,1-2.5-2.5v-20a2.5,2.5,0,0,1,2.5-2.5h20a2.5,2.5,0,0,1,2.5,2.5v20A2.5,2.5,0,0,1,240,295.39Zm-17.5-5h15v-15h-15Z"/><path class="cls-1" d="M270,295.39H250a2.5,2.5,0,0,1-2.5-2.5v-20a2.5,2.5,0,0,1,2.5-2.5h20a2.5,2.5,0,0,1,2.5,2.5v20A2.5,2.5,0,0,1,270,295.39Zm-17.5-5h15v-15h-15Z"/><path class="cls-1" d="M300,295.39H280a2.5,2.5,0,0,1-2.5-2.5v-20a2.5,2.5,0,0,1,2.5-2.5h20a2.5,2.5,0,0,1,2.5,2.5v20A2.5,2.5,0,0,1,300,295.39Zm-17.5-5h15v-15h-15Z"/><path class="cls-1" d="M330,295.39H310a2.5,2.5,0,0,1-2.5-2.5v-20a2.5,2.5,0,0,1,2.5-2.5h20a2.5,2.5,0,0,1,2.5,2.5v20A2.5,2.5,0,0,1,330,295.39Zm-17.5-5h15v-15h-15Z"/><path class="cls-1" d="M90,325.39H70a2.5,2.5,0,0,1-2.5-2.5v-20a2.5,2.5,0,0,1,2.5-2.5H90a2.5,2.5,0,0,1,2.5,2.5v20A2.5,2.5,0,0,1,90,325.39Zm-17.5-5h15v-15h-15Z"/><path class="cls-1" d="M120,325.39H100a2.5,2.5,0,0,1-2.5-2.5v-20a2.5,2.5,0,0,1,2.5-2.5h20a2.5,2.5,0,0,1,2.5,2.5v20A2.5,2.5,0,0,1,120,325.39Zm-17.5-5h15v-15h-15Z"/><path class="cls-1" d="M150,325.39H130a2.5,2.5,0,0,1-2.5-2.5v-20a2.5,2.5,0,0,1,2.5-2.5h20a2.5,2.5,0,0,1,2.5,2.5v20A2.5,2.5,0,0,1,150,325.39Zm-17.5-5h15v-15h-15Z"/><path class="cls-1" d="M180,325.39H160a2.5,2.5,0,0,1-2.5-2.5v-20a2.5,2.5,0,0,1,2.5-2.5h20a2.5,2.5,0,0,1,2.5,2.5v20A2.5,2.5,0,0,1,180,325.39Zm-17.5-5h15v-15h-15Z"/><path class="cls-1" d="M210,325.39H190a2.5,2.5,0,0,1-2.5-2.5v-20a2.5,2.5,0,0,1,2.5-2.5h20a2.5,2.5,0,0,1,2.5,2.5v20A2.5,2.5,0,0,1,210,325.39Zm-17.5-5h15v-15h-15Z"/><path class="cls-1" d="M240,325.39H220a2.5,2.5,0,0,1-2.5-2.5v-20a2.5,2.5,0,0,1,2.5-2.5h20a2.5,2.5,0,0,1,2.5,2.5v20A2.5,2.5,0,0,1,240,325.39Zm-17.5-5h15v-15h-15Z"/><path class="cls-1" d="M270,325.39H250a2.5,2.5,0,0,1-2.5-2.5v-20a2.5,2.5,0,0,1,2.5-2.5h20a2.5,2.5,0,0,1,2.5,2.5v20A2.5,2.5,0,0,1,270,325.39Zm-17.5-5h15v-15h-15Z"/><path class="cls-1" d="M300,325.39H280a2.5,2.5,0,0,1-2.5-2.5v-20a2.5,2.5,0,0,1,2.5-2.5h20a2.5,2.5,0,0,1,2.5,2.5v20A2.5,2.5,0,0,1,300,325.39Zm-17.5-5h15v-15h-15Z"/><path class="cls-1" d="M90,355.39H70a2.5,2.5,0,0,1-2.5-2.5v-20a2.5,2.5,0,0,1,2.5-2.5H90a2.5,2.5,0,0,1,2.5,2.5v20A2.5,2.5,0,0,1,90,355.39Zm-17.5-5h15v-15h-15Z"/><path class="cls-1" d="M120,355.39H100a2.5,2.5,0,0,1-2.5-2.5v-20a2.5,2.5,0,0,1,2.5-2.5h20a2.5,2.5,0,0,1,2.5,2.5v20A2.5,2.5,0,0,1,120,355.39Zm-17.5-5h15v-15h-15Z"/><path class="cls-1" d="M150,355.39H130a2.5,2.5,0,0,1-2.5-2.5v-20a2.5,2.5,0,0,1,2.5-2.5h20a2.5,2.5,0,0,1,2.5,2.5v20A2.5,2.5,0,0,1,150,355.39Zm-17.5-5h15v-15h-15Z"/><path class="cls-1" d="M300,355.39H280a2.5,2.5,0,0,1-2.5-2.5v-20a2.5,2.5,0,0,1,2.5-2.5h20a2.5,2.5,0,0,1,2.5,2.5v20A2.5,2.5,0,0,1,300,355.39Zm-17.5-5h15v-15h-15Z"/><path class="cls-1" d="M330,355.39H310a2.5,2.5,0,0,1-2.5-2.5v-20a2.5,2.5,0,0,1,2.5-2.5h20a2.5,2.5,0,0,1,2.5,2.5v20A2.5,2.5,0,0,1,330,355.39Zm-17.5-5h15v-15h-15Z"/><path class="cls-1" d="M360,355.39H340a2.5,2.5,0,0,1-2.5-2.5v-20a2.5,2.5,0,0,1,2.5-2.5h20a2.5,2.5,0,0,1,2.5,2.5v20A2.5,2.5,0,0,1,360,355.39Zm-17.5-5h15v-15h-15Z"/><path class="cls-1" d="M439.72,355.39H370a2.5,2.5,0,0,1-2.5-2.5V213.61a2.5,2.5,0,0,1,2.5-2.5h69.74a2.49,2.49,0,0,1,2.5,2.5v61.88a2.5,2.5,0,0,1-5,0V216.11H372.48V350.39h64.74V327a2.5,2.5,0,1,1,5,0v25.85A2.49,2.49,0,0,1,439.72,355.39Z"/><path class="cls-1" d="M270,355.39H160a2.5,2.5,0,0,1-2.5-2.5v-20a2.5,2.5,0,0,1,2.5-2.5h20a2.5,2.5,0,1,1,0,5h-17.5v15h105v-15H220a2.5,2.5,0,0,1,0-5h50a2.5,2.5,0,0,1,2.5,2.5v20A2.5,2.5,0,0,1,270,355.39Z"/><path class="cls-1" d="M360,265.39H310a2.5,2.5,0,0,1-2.5-2.5v-20a2.5,2.5,0,0,1,2.5-2.5h50a2.5,2.5,0,0,1,2.5,2.5v20A2.5,2.5,0,0,1,360,265.39Zm-47.5-5h45v-15h-45Z"/><path class="cls-1" d="M360,325.39H310a2.5,2.5,0,0,1-2.5-2.5v-20a2.5,2.5,0,0,1,2.5-2.5h27.5v-27.5a2.5,2.5,0,0,1,2.5-2.5h20a2.5,2.5,0,0,1,2.5,2.5v50A2.5,2.5,0,0,1,360,325.39Zm-47.5-5h45v-45h-15v27.5a2.5,2.5,0,0,1-2.5,2.5h-27.5Z"/></g></svg>