<?xml version="1.0" encoding="iso-8859-1"?>
<!-- Generator: Adobe Illustrator 19.0.0, SVG Export Plug-In . SVG Version: 6.00 Build 0)  -->
<svg xmlns="http://www.w3.org/2000/svg" xmlns:xlink="http://www.w3.org/1999/xlink" version="1.1" id="Capa_1" x="0px" y="0px" viewBox="0 0 512 512" style="enable-background:new 0 0 512 512;" xml:space="preserve">
<polygon style="fill:#D6CDA5;" points="345.654,362.983 164.418,362.983 193.339,336.994 316.733,336.994 "/>
<rect x="140" y="362.98" style="fill:#E2D9B3;" width="228.79" height="26.992"/>
<path style="fill:#F1E9C5;" d="M437.938,336.994H72.134c-8.59,0-15.554-6.964-15.554-15.554V23.054  c0-8.59,6.964-15.554,15.554-15.554h365.804c8.59,0,15.554,6.964,15.554,15.554V321.44  C453.492,330.03,446.528,336.994,437.938,336.994z"/>
<path style="fill:#E2D9B3;" d="M453.488,289.857v31.585c0,8.59-6.962,15.553-15.553,15.553H72.137  c-8.59,0-15.553-6.962-15.553-15.553v-31.585c0,8.59,6.962,15.563,15.553,15.563h365.797  C446.525,305.419,453.488,298.447,453.488,289.857z"/>
<rect x="91.94" y="42.997" style="fill:#52A397;" width="326.18" height="237.83"/>
<polygon style="fill:#63B7A9;" points="418.128,42.997 418.128,72.168 180.551,280.825 91.944,280.825 91.944,229.331   307.189,42.997 "/>
<rect x="24.636" y="380.21" style="fill:#F1E9C5;" width="462.73" height="124.29"/>
<rect x="24.636" y="472.5" style="fill:#E2D9B3;" width="462.73" height="32.01"/>
<path style="fill:#52A397;" d="M75.602,472.498c0,7.612-6.172,13.784-13.791,13.784c-7.612,0-13.784-6.172-13.784-13.784  c0-2.022,0.433-3.944,1.22-5.675c2.164-4.788,6.973-8.116,12.563-8.116c5.597,0,10.407,3.327,12.564,8.116  C75.162,468.554,75.602,470.477,75.602,472.498z"/>
<path style="fill:#61B4AA;" d="M74.375,466.823c-2.157,4.781-6.966,8.109-12.564,8.109c-5.59,0-10.4-3.327-12.563-8.109  c2.164-4.788,6.973-8.116,12.563-8.116C67.408,458.708,72.218,462.035,74.375,466.823z"/>
<path style="fill:#DD5478;" d="M124.779,472.498c0,7.612-6.172,13.784-13.791,13.784c-7.612,0-13.784-6.172-13.784-13.784  c0-2.022,0.433-3.944,1.22-5.675c2.164-4.788,6.973-8.116,12.563-8.116c5.597,0,10.407,3.327,12.564,8.116  C124.339,468.554,124.779,470.477,124.779,472.498z"/>
<path style="fill:#E66480;" d="M123.552,466.823c-2.157,4.781-6.966,8.109-12.564,8.109c-5.59,0-10.4-3.327-12.563-8.109  c2.164-4.788,6.973-8.116,12.563-8.116C116.585,458.708,121.395,462.035,123.552,466.823z"/>
<rect x="276.57" y="404.57" style="fill:#2A7182;" width="184.45" height="25.707"/>
<path d="M425.628,280.829V43.001c0-4.142-3.357-7.5-7.5-7.5H91.944c-4.143,0-7.5,3.358-7.5,7.5v237.828c0,4.142,3.357,7.5,7.5,7.5  h326.184C422.271,288.329,425.628,284.971,425.628,280.829z M410.628,273.329H99.444V50.501h311.184V273.329z"/>
<path d="M487.364,372.709H376.29v-9.729c0-4.142-3.357-7.5-7.5-7.5h-20.265l-12.225-10.986h101.638  c12.712,0,23.055-10.342,23.055-23.054V172.247c0-4.142-3.357-7.5-7.5-7.5s-7.5,3.358-7.5,7.5V321.44  c0,4.441-3.613,8.054-8.055,8.054H316.733H193.339H72.134c-4.44,0-8.054-3.613-8.054-8.054V23.054c0-4.441,3.613-8.054,8.054-8.054  h365.804c4.441,0,8.055,3.613,8.055,8.054V137.65c0,4.142,3.357,7.5,7.5,7.5s7.5-3.358,7.5-7.5V23.054  C460.992,10.342,450.648,0,437.938,0H72.134C59.422,0,49.08,10.342,49.08,23.054V321.44c0,12.712,10.342,23.054,23.054,23.054  h101.639l-12.225,10.986H140c-4.143,0-7.5,3.358-7.5,7.5v9.729H24.636c-4.143,0-7.5,3.358-7.5,7.5V412c0,4.142,3.357,7.5,7.5,7.5  s7.5-3.358,7.5-7.5v-24.291H139.99c0.003,0,0.006,0,0.01,0s0.006,0,0.01,0h3.961V497H32.136v-54.645c0-4.142-3.357-7.5-7.5-7.5  s-7.5,3.358-7.5,7.5V504.5c0,4.142,3.357,7.5,7.5,7.5h462.729c4.143,0,7.5-3.358,7.5-7.5V380.209  C494.864,376.067,491.507,372.709,487.364,372.709z M196.214,344.494h117.645l12.225,10.986H183.989L196.214,344.494z M147.5,370.48  h16.881c0.013,0,0.025,0.003,0.038,0.003h181.234c0.013,0,0.025-0.003,0.038-0.003h15.599v2.229H147.5V370.48z M479.864,387.709  v59.373H219c-4.143,0-7.5,3.358-7.5,7.5s3.357,7.5,7.5,7.5h260.864V497H158.971v-34.917H189c4.143,0,7.5-3.358,7.5-7.5  s-3.357-7.5-7.5-7.5h-30.029V387.71h320.893V387.709z"/>
<path d="M59.2,432.267v-29.693c0-4.142-3.357-7.5-7.5-7.5s-7.5,3.358-7.5,7.5v29.693c0,4.142,3.357,7.5,7.5,7.5  S59.2,436.409,59.2,432.267z"/>
<path d="M69.052,439.767c4.143,0,7.5-3.358,7.5-7.5v-29.693c0-4.142-3.357-7.5-7.5-7.5s-7.5,3.358-7.5,7.5v29.693  C61.552,436.409,64.909,439.767,69.052,439.767z"/>
<path d="M86.403,395.074c-4.143,0-7.5,3.358-7.5,7.5v29.693c0,4.142,3.357,7.5,7.5,7.5s7.5-3.358,7.5-7.5v-29.693  C93.903,398.432,90.546,395.074,86.403,395.074z"/>
<path d="M111.255,432.267v-29.693c0-4.142-3.357-7.5-7.5-7.5s-7.5,3.358-7.5,7.5v29.693c0,4.142,3.357,7.5,7.5,7.5  S111.255,436.409,111.255,432.267z"/>
<path d="M61.814,493.78c11.736,0,21.285-9.548,21.285-21.285s-9.549-21.286-21.285-21.286s-21.285,9.549-21.285,21.286  S50.078,493.78,61.814,493.78z M61.814,466.209c3.466,0,6.285,2.82,6.285,6.286s-2.819,6.285-6.285,6.285s-6.285-2.819-6.285-6.285  S58.349,466.209,61.814,466.209z"/>
<path d="M89.706,472.495c0,11.737,9.549,21.285,21.285,21.285s21.285-9.548,21.285-21.285s-9.549-21.286-21.285-21.286  S89.706,460.758,89.706,472.495z M110.991,466.209c3.466,0,6.285,2.82,6.285,6.286s-2.819,6.285-6.285,6.285  s-6.285-2.819-6.285-6.285S107.525,466.209,110.991,466.209z"/>
<path d="M451.695,470.075h-22.173c-4.143,0-7.5,3.358-7.5,7.5s3.357,7.5,7.5,7.5h22.173c4.143,0,7.5-3.358,7.5-7.5  S455.838,470.075,451.695,470.075z"/>
<path d="M384.333,302.925c-4.143,0-7.5,3.358-7.5,7.5s3.357,7.5,7.5,7.5H415c4.143,0,7.5-3.358,7.5-7.5s-3.357-7.5-7.5-7.5H384.333z  "/>
<path d="M249.667,424.92h19.398v5.354c0,4.142,3.357,7.5,7.5,7.5h184.448c4.143,0,7.5-3.358,7.5-7.5v-25.707  c0-4.142-3.357-7.5-7.5-7.5H276.565c-4.143,0-7.5,3.358-7.5,7.5v5.354h-19.398c-4.143,0-7.5,3.358-7.5,7.5  S245.524,424.92,249.667,424.92z M284.065,412.066h169.448v10.707H284.065V412.066z"/>
<g>
</g>
<g>
</g>
<g>
</g>
<g>
</g>
<g>
</g>
<g>
</g>
<g>
</g>
<g>
</g>
<g>
</g>
<g>
</g>
<g>
</g>
<g>
</g>
<g>
</g>
<g>
</g>
<g>
</g>
</svg>
